<svg xmlns="http://www.w3.org/2000/svg" xmlns:xlink="http://www.w3.org/1999/xlink" version="1.1" x="0px" y="0px" viewBox="0 0 95 118.75" style="enable-background:new 0 0 95 95;" xml:space="preserve"><path d="M80,47.1c0.4,0.1,0.9,0.2,1.3,0.4C80.9,47.3,80.5,47.2,80,47.1z"/><path d="M70,52.3c0.1,0.1,0.1,0.2,0.2,0.3s0.2,0.2,0.3,0.2c0.2,0.1,0.5,0.1,0.7,0.1c1.8,0.2,3.7,0.2,5.5,0.1  c0.9-0.1,1.9-0.2,2.7-0.6c0.9-0.3,1.7-0.8,2.3-1.5c0.3-0.4,0.6-0.8,0.7-1.2c0.2-0.4,0.3-1,0-1.4c0.3,0.4,0.1,0.9-0.1,1.3  c-0.2,0.4-0.4,0.8-0.7,1.1c-0.6,0.7-1.4,1.1-2.3,1.4c-0.8,0.3-1.8,0.5-2.7,0.5c-1.8,0.1-3.7,0.1-5.5-0.1c-0.2,0-0.5,0-0.6-0.1  s-0.2-0.1-0.3-0.2c-0.1-0.1-0.1-0.2-0.2-0.3c-0.2-0.4-0.3-0.8-0.4-1.3c-0.1-0.9,0-1.8,0.1-2.7c0-0.2,0.4-0.4,0.7-0.5  c0.3-0.1,0.6-0.2,1-0.2c0.7-0.1,1.3-0.2,2-0.2c-0.7,0-1.3,0-2,0.1c-0.3,0-0.7,0.1-1,0.2c-0.2,0.1-0.3,0.1-0.5,0.2  c-0.1,0.1-0.3,0.2-0.3,0.5c-0.1,0.9-0.2,1.8-0.1,2.8C69.7,51.4,69.8,51.9,70,52.3z"/><path d="M79.7,54.9c-1.2,0.1-5.6,0.6-7.1,1.8s-2.2,3.2-2.2,3.2s-0.2,0.1,0,0.7c0.2,0.6,5.4,0,9.3-0.5s3.7-4.9,3.7-4.9  S80.9,54.8,79.7,54.9z M73.7,60.4c-0.5-0.1-1-1.1-1-1.1s-0.5,0-1,0s-0.8,1.1-0.8,1.1s0,0,0.1,0.1c-0.1,0-0.2,0-0.2,0s1-2.9,2.5-3.5  c0.1,0,0.1,0,0.2-0.1c-0.4,0.4-0.7,0.9-0.7,1.6c0,0.9,0.5,1.6,1.3,1.9C73.9,60.4,73.8,60.4,73.7,60.4z M72.9,58.5  c0-1,0.8-1.8,1.8-1.8s1.8,0.8,1.8,1.8s-0.8,1.8-1.8,1.8S72.9,59.5,72.9,58.5z M77.3,60.3l1-0.3c0,0-1.4,0.1-1.6,0s0.1-0.4,0.1-0.4h1  c-0.6-0.1-0.6-0.9-0.6-0.9h-0.4c0.1,0.3-0.7,1.4-0.8,1.6c-0.1,0-0.2,0-0.4,0c0.7-0.3,1.1-1,1.1-1.8c0-1-0.8-1.9-1.8-2  c1.1-0.2,2.4-0.5,3.7-0.6c-0.9,0.2-1.5,1-1.5,2c0,1.2,0.9,2.1,2.1,2.1c0.1,0,0.3,0,0.4,0C78.9,60.1,78.1,60.2,77.3,60.3z M79.2,59.7  c-1,0-1.8-0.8-1.8-1.8s0.8-1.8,1.8-1.8s1.8,0.8,1.8,1.8S80.2,59.7,79.2,59.7z M83,55.9c0,0-0.2,3.2-2.8,3.9c-0.2,0-0.3,0.1-0.5,0.1  c0.9-0.2,1.6-1,1.6-2s-0.8-2-1.9-2.1C80.6,55.7,81.8,55.7,83,55.9z"/><path d="M77.6,69.8c2.9-0.4,3.6-2,4.4-3.6s0.4-2.9-0.2-3.2s-2.7,0.3-6.9,0.5s-4.1,1-4.1,1l-3.2,5C67.1,69.9,74.7,70.2,77.6,69.8z   M70.6,66.7c0-1.3,1.1-2.4,2.4-2.4s2.4,1.1,2.4,2.4S74.2,69,72.9,69S70.6,68,70.6,66.7z"/><path d="M81.5,57.6L81.5,57.6c-0.1,1.4-1.1,2.1-1.1,2.1s0,0,0.7-0.4s1.1-1.3,1.1-1.3l-0.7,0.8c0,0-0.3,0.2-0.1-0.1  c0.1-0.1,0.1-0.4,0.2-0.6l0.5-0.5c-0.1,0.1-0.2,0.1-0.3,0.2C81.7,57.9,81.6,57.8,81.5,57.6L81.5,57.6L81.5,57.6c0-0.2,0-0.4,0-0.5  c0.1-0.4,1-1.2,1-1.2h-2.3C81.4,56.3,81.3,57.4,81.5,57.6z"/><path d="M77.8,56.3c-0.5-0.1-1.6,0.1-1.9,0.1c-0.1,0-0.1,0-0.1,0l-0.2,0.2c0.7,0,1.3,1.5,1.3,1.5s-0.1-0.6-0.1-1  C76.9,56.7,77.8,56.3,77.8,56.3z"/><path d="M67.5,32.2c-2.8-2-21.6-1.8-21.6-1.8c-5.5,0-16.3,0.3-18.3,1.8c-2.8,2-7.1,11.1-7.1,11.1s19.6-0.6,22.9-0.7  c0,0-0.7-4.2-3.1-4.2c-1.2,0-1.7,0-1.8,0c0,0,0.8-3.9-0.9-3.9s-5.2-0.8-5.4,1.9v2.1c0,0-2.3,0-2.4,1.6c0,0.6-0.5-4.2,0.3-5.8  c0.6-1.2-0.2-2,4.3-2.2c2.7-0.1,15.3-0.2,15.3-0.2c3.5,0,8.6-0.1,11.3,0.1c4.4,0.2,3.7,1,4.3,2.2c0.8,1.6,0.3,6.4,0.3,5.8  c-0.1-1.6-2.4-1.6-2.4-1.6v-2.1c-0.2-2.8-3.7-1.9-5.4-1.9s-1.2,4-1.2,4c-0.1,0-0.6,0-1.8,0c-2.4,0-3.1,4.2-3.1,4.2  c3.3,0.1,22.9,0.7,22.9,0.7S70.3,34.2,67.5,32.2z"/><path d="M13.6,47.7c0.4-0.2,0.9-0.3,1.3-0.4C14.4,47.4,14,47.5,13.6,47.7z"/><path d="M25,47.7c-0.1-0.1-0.3-0.2-0.5-0.2c-0.3-0.1-0.7-0.2-1-0.2c-0.7-0.1-1.3-0.1-2-0.1c0.7,0,1.3,0.1,2,0.2c0.3,0,0.6,0.1,1,0.2  c0.3,0.1,0.7,0.3,0.7,0.5c0.1,0.9,0.2,1.8,0.1,2.7c0,0.4-0.1,0.9-0.4,1.3c-0.1,0.1-0.1,0.2-0.2,0.3s-0.2,0.1-0.3,0.2  c-0.2,0.1-0.4,0.1-0.6,0.1c-1.8,0.1-3.7,0.2-5.5,0.1c-0.9-0.1-1.8-0.2-2.7-0.5c-0.9-0.3-1.7-0.8-2.3-1.4c-0.3-0.3-0.5-0.7-0.7-1.1  c-0.2-0.4-0.3-0.9-0.1-1.3c-0.3,0.4-0.2,1,0,1.4s0.4,0.8,0.7,1.2c0.6,0.7,1.5,1.2,2.3,1.5c0.9,0.4,1.8,0.5,2.7,0.6  c1.8,0.2,3.7,0.1,5.5-0.1c0.2,0,0.5,0,0.7-0.1c0.1-0.1,0.2-0.1,0.3-0.2c0.1-0.1,0.2-0.2,0.2-0.3c0.2-0.4,0.3-0.9,0.4-1.4  c0.2-1,0.1-2,0-2.9C25.3,48,25.1,47.8,25,47.7z"/><path d="M39,57.1h8.3l-1-0.6h-7.8L38,57c0,0-0.1,0.7,0,1.8c0.1,0.9,0.4,3.1,0.4,3.1c0.4,0.7,0.2-3.2,0.2-4.1c0-0.1,0-0.2,0-0.2  L39,57.1z"/><path d="M56.5,57.6c0,0,0,0.1,0,0.2c0,0.9-0.2,4.8,0.2,4.1c0,0,0.3-2.2,0.4-3.1c0.1-1.1,0-1.8,0-1.8l-0.5-0.5h-7.8l-1,0.6h8.3  L56.5,57.6z"/><path d="M34.8,70.4c4.1,0.7,9.9,1,12.8,1c3,0.1,8.6-0.3,12.6-1c4.1-0.7,4.2-2.5,4.6-4.6c0.5-2.1-0.8-2.2-0.8-2.2L56.2,64v-0.2h-0.4  v-6h0.7L56,57.4H39.6h-0.5l-0.5,0.4h0.3V64L31,63.6c0,0-1.3,0-0.8,2.2C30.6,67.9,30.7,69.7,34.8,70.4z"/><path d="M77.2,42.7c-0.2,0.5-0.3,1-0.3,1.2H77C77,43.9,77.3,43.2,77.2,42.7z"/><path d="M24.7,60c0,0-0.8-2.1-2.2-3.3c-1.5-1.2-5.9-1.7-7.1-1.8s-3.7,0.4-3.7,0.4s-0.2,4.4,3.7,4.9s9.1,1.1,9.3,0.5  C24.9,60.1,24.7,60,24.7,60z M18.4,60c-0.2,0.1-1.6,0-1.6,0l1,0.3c-0.9-0.1-1.7-0.2-2.3-0.3c0.1,0,0.3,0,0.4,0  c1.1,0,2.1-0.9,2.1-2.1c0-0.6-0.2-1-0.5-1.4c0.3,0.1,0.8,0.4,0.8,0.7c0.1,0.4-0.1,1-0.1,1s0.6-1.6,1.3-1.6l-0.2-0.1c0,0,0,0-0.1,0  c-0.3,0-1.3-0.2-1.8-0.1c-0.4-0.4-0.9-0.6-1.5-0.6c-1.2,0-2.1,0.9-2.1,2.1c0,1,0.7,1.8,1.6,2c-0.2,0-0.4-0.1-0.5-0.1  s-0.2-0.1-0.3-0.1c-0.3-0.2-0.9-0.9-0.9-1.8h-0.2c0,0,0,0-0.1,0.1l0,0l0,0c0,0-0.1,0-0.2,0c-0.1-0.1-0.2-0.1-0.3-0.2l0.5,0.5  c0,0.2,0.1,0.4,0.2,0.6c0.1,0.2,0.1,0.2,0,0.2c0.1,0.1,0.3,0.3,0.4,0.3c0.2,0.1,0.4,0.2,0.5,0.3c-2.2-0.8-2.4-3.8-2.4-3.8  c2.6-0.5,5.9,0,8,0.6c-1,0.1-1.8,1-1.8,2c0,0.1,0,0.3,0.1,0.4c0-0.1-0.1-0.2-0.1-0.2h-0.4c0,0,0,0.8-0.6,0.9h1  C18.3,59.6,18.6,59.8,18.4,60z M14.1,57.9c0-1,0.8-1.8,1.8-1.8s1.8,0.8,1.8,1.8s-0.8,1.8-1.8,1.8S14.1,58.9,14.1,57.9z M19.1,60.3  c-0.1-0.1-0.3-0.3-0.4-0.6c0.2,0.3,0.4,0.5,0.7,0.6C19.3,60.3,19.2,60.3,19.1,60.3z M18.6,58.5c0-1,0.8-1.8,1.8-1.8s1.8,0.8,1.8,1.8  s-0.8,1.8-1.8,1.8S18.6,59.5,18.6,58.5z M24.2,60.5c0-0.1-0.4-1.2-0.8-1.2c-0.5,0-1,0-1,0s-0.5,1-1,1.1c-0.1,0-0.1,0-0.2,0  c0.7-0.3,1.3-1,1.3-1.9c0-0.6-0.3-1.2-0.7-1.6c0.1,0,0.1,0,0.2,0.1c1.4,0.6,2.5,3.5,2.5,3.5S24.3,60.5,24.2,60.5z"/><path d="M17.5,69.8c2.9,0.4,10.5,0.1,10-0.3l-3.2-5c0,0,0.2-0.8-4.1-1s-6.3-0.8-6.9-0.5c-0.6,0.3-1,1.6-0.2,3.2  C13.9,67.8,14.6,69.4,17.5,69.8z M22.2,64.3c1.3,0,2.4,1.1,2.4,2.4S23.5,69,22.2,69s-2.4-1.1-2.4-2.4S20.9,64.3,22.2,64.3z"/><path d="M13.5,57.2c0,0.2,0,0.4,0,0.6c0,0,0-0.1,0.1-0.1c0.3-0.1,0.1-1.3,1.1-1.6h-2.3C12.4,56,13.4,56.8,13.5,57.2z"/><path d="M13,58.2L12.9,58C12.9,58,12.9,58.1,13,58.2z"/><path d="M13.5,58.9c-0.1-0.1-0.2-0.2-0.2-0.3L13.5,58.9L13.5,58.9z"/><path d="M88.2,68.3c0.1-0.4,0.2-0.7,0.2-1c-0.1-2.1-0.9-2.1-1.5-2.7s0-3.2,0-3.2s1.3-9.5-0.7-12.7s-7-4.4-7.4-4.6  c-0.4-0.2-0.3-0.7,0.3-1.3c0.5-0.6,2.4-0.1,3.6-0.4c0.7-0.2,0.8-1,0.8-1.7c0-0.1,0-0.4-0.1-0.7c0-0.1,0-0.1,0-0.1  c-0.1-0.1-0.1-0.3-0.2-0.4c-0.4-0.5-1-0.7-1.9-0.8c-2-0.1-3.4-0.1-4,0.5c-0.1,0.1-0.2,0.2-0.3,0.4c0,0-0.6,2,0,2.5  c0.1,0.1,0.2,0.3,0.2,0.6c0.1-0.4,0.2-0.9,0.3-1.3c0-0.7-0.3-1.2-0.5-1.5c0.1-0.3,0.2-0.4,0.3-0.6c0.6-0.5,1.9-0.6,3.8-0.4  c0.8,0.1,1.4,0.3,1.7,0.7c0.1,0.1,0.2,0.3,0.2,0.5c0,0,0,0.1-0.1,0.1c-0.3,0.5-1.2,0.7-2,0.8c-0.9,0.1-1.8,0.9-2.5,2.1  c-0.7,1.2-1.1,1-1.4,0.9l-0.1-0.1l-1-0.1c-0.7-1.3-5.3-10-7.5-11.6c-0.1,0-0.1-0.1-0.2-0.1c-1.3-1-3.2-1.4-4.9-1.6  c-0.6-0.1-1-0.1-1-0.1l0,0c-0.1,0-0.2,0-0.2,0c-8.5-0.7-21.3-0.3-26.4-0.1c-4,0.2-4.4,0.3-6.1,0.8c-0.4,0.1-0.8,0.3-1.4,0.5  c-3.1,1-8.6,11.9-8.8,12.4l0.1,0.1L18.3,44c0,0-0.5-1.3,0-1.8s0-2.5,0-2.5c-0.1-0.1-0.1-0.3-0.3-0.4c-0.6-0.6-2-0.6-4-0.5  c-0.9,0.1-1.5,0.3-1.9,0.8c-0.1,0.1-0.2,0.3-0.2,0.4v0.1c-0.1,0.3-0.1,0.6-0.1,0.7c0,0.7,0,1.5,0.8,1.7c1.2,0.4,3.1-0.2,3.6,0.4  c0.5,0.6,0.6,1.1,0.3,1.3c-0.4,0.2-5.4,1.4-7.4,4.6S8.2,61.5,8.2,61.5s0.6,2.5,0,3.2s-1.3,0.7-1.5,2.7c0,0.3,0,0.6,0.1,0.9  c-0.2,0.8-0.5,2.3-0.5,3.2c-0.2,3,2.5,4,5.1,6c2.1,1.6,17.9,2,28.3,2.1c0.2,0,0.4,0,0.5,0c0.9,0,2,0,3.1,0c1.8,0,3.2,0,4.2,0  c0.3,0,0.6,0,0.9-0.1c13.2,0,33.1-0.5,35.2-2.1c2.5-1.8,5.2-2.8,5.1-5.7C88.8,70.9,88.5,69.3,88.2,68.3z M35.7,44.9  c-4.4,0.4-6.8,0.7-9.8,0.3s-5.1-1.4-5.1-1.4s6.9,0.1,11.8,0c3.8-0.1,11.9-0.4,15.3-0.5c3.5,0.1,11.5,0.4,15.2,0.5  c4.9,0.1,11.8,0,11.8,0s-2.1,1.1-5.1,1.4c-3,0.3-5.4,0.1-9.8-0.3c-4-0.4-10.6-0.3-11.8-0.3l0,0C48.2,44.6,40.1,44.5,35.7,44.9z   M74.8,43.5c0,0-12.2,0.3-16.9-0.3c-3.3-0.4-8.1-0.2-10.6-0.1c-2.5-0.1-7.2-0.3-10.5,0.1c-4.7,0.6-16.9,0.3-16.9,0.3l-0.2,0.1  c1-2,5.8-11,8.5-11.9c0.6-0.2,1.1-0.3,1.5-0.5c1.6-0.5,2-0.7,6-0.8c5.1-0.2,17.8-0.6,26.3,0.1c1,0.1,2.2,0.2,3.4,0.5  c0.9,0.3,1.9,0.7,2.6,1.2c1.9,1.4,6.1,9.1,7.2,11.1c0,0.1,0.1,0.1,0.1,0.2L74.8,43.5z M14.1,41c-0.9-0.1-1.7-0.3-2-0.8L12,40.1  c0.1-0.1,0.1-0.3,0.2-0.5c0.3-0.4,0.9-0.7,1.7-0.7c1.9-0.1,3.2-0.1,3.8,0.4c0.1,0.1,0.2,0.3,0.2,0.4c-0.2,0.3-0.6,0.9-0.5,1.5  c0,1,0.8,2.6,0.5,2.6c-0.2,0.2-0.7,0.4-1.3-0.8C16,41.8,15,41,14.1,41z M7.9,65.6c0,0,1.3-0.9,1-2.5s-1-4.4-0.5-5.5  c0.6-1,2.1,4.4,2.8,5.7s1.1,3.3,0.4,4.2c-0.7,0.9-1.7,0.8-2.6,0.2c-0.9-0.6-1.1-0.4-0.8-0.3c0.3,0.1,3.1,2.3,3.8,0.6  s0.7-1.7,0.7-1.7l1.3,1.9c-0.3-0.5-1.9-3.1-1.5-4.7c0,0-0.1-1.1,1.8-1s15.4,2,15.4,2l0.4-0.7c0,0-3.1-0.4-3.9-1.3  c-0.8-0.9-0.9-1.3-0.9-1.3l-0.7,0.2c0,0-9.8-0.5-10.9-1.1s-2-2.2-2-2.4s-2.5-5.9-1.6-8.3c0.9-2.4,2.8-3.6,4.7-4l1.5-0.2l-0.4,1.8  h0.3l0.6-2c0,0,3.8,0,5.8,0.3s7.9,0.9,10,0.4C36.4,44.9,48,45,48,45s11.3-0.2,15.1,0.8c2.1,0.6,8,0,10-0.4s5.8-0.3,5.8-0.3l0.6,2  h0.3l-0.4-1.8l1.5,0.2c1.9,0.4,3.9,1.7,4.7,4c0.8,2.3-1.6,8.1-1.6,8.3s-0.8,1.8-2,2.4c-1.2,0.6-11.4,1.2-11.4,1.2l-0.7-0.2  c0,0-0.1,0.3-0.9,1.3s-3.9,1.3-3.9,1.3l0.4,0.7c0,0,13.5-1.9,15.4-2s1.8,1,1.8,1c0.4,1.6-1.2,4.2-1.5,4.7l1.3-1.9c0,0,0,0,0.7,1.7  s3.5-0.5,3.8-0.6s0-0.3-0.8,0.3c-0.8,0.6-1.9,0.7-2.6-0.2c-0.7-0.9-0.2-2.9,0.4-4.2s2.2-6.7,2.8-5.7c0.6,1-0.1,3.8-0.5,5.5  c-0.4,1.7,1,2.5,1,2.5s1.1,1.6-0.4,2.6s-6,0.8-6,0.8l-1.3,0.8C77.1,71.3,67,71.3,67,71.3s-3.1,0-8.7,0.5s-10.7,0-10.7,0  s-5.2,0.5-10.7,0c-5.6-0.5-8.7-0.5-8.7-0.5s-10.1,0-12.6-1.5L14.3,69c0,0-4.5,0.2-6-0.8S7.9,65.6,7.9,65.6z M87.2,69  c0,0.2-1.9,2.4-4.3,2.8S80,72.1,80,72.1s0-1.4,0.3-1.6s0.1,0.9,0.3,1c0.2,0.1,2.3,0.1,3.4-0.5C85.1,70.4,87.2,68.7,87.2,69z   M63.7,72.9H31.4c-3.7-0.1-7.1-0.2-8.6-0.4c-4.4-0.5,24.8,0.1,24.8,0.1s29.1-0.6,24.7-0.1C70.8,72.7,67.5,72.8,63.7,72.9z M15.1,72  c0,0-0.5,0.1-2.9-0.3c-2.4-0.3-4.3-2.5-4.3-2.8s2.1,1.4,3.2,2s3.3,0.6,3.4,0.5c0.1-0.1,0-1.2,0.3-1C15.1,70.6,15.1,72,15.1,72z   M79.1,74.6c-7.8,0.2-31.8,0-31.8,0h-5c-7.5,0-20.9,0.1-26.4,0c-7.7-0.2-8.4-1.3-9.3-2.1c0-0.9,0.1-3,0.7-3.1  c0.9,1.7,2.9,3.5,4.1,3.7c0.9,0.2,9.9,0.6,18.7,0.8l0,0l0,0c3.5,0.1,7.1,0.1,10,0H55c2.9,0.1,6.4,0.1,10,0l0,0l0,0  c8.8-0.2,17.7-0.7,18.7-0.8c1.3-0.2,3.2-2,4.1-3.7c0.5,0.2,0.6,2.3,0.6,3.1C87.6,73.3,86.9,74.4,79.1,74.6z"/><text x="0" y="110" fill="#000000" font-size="5px" font-weight="bold" font-family="'Helvetica Neue', Helvetica, Arial-Unicode, Arial, Sans-serif">Created by Naziur Rahman</text><text x="0" y="115" fill="#000000" font-size="5px" font-weight="bold" font-family="'Helvetica Neue', Helvetica, Arial-Unicode, Arial, Sans-serif">from the Noun Project</text></svg>